<svg width="100" height="100" viewBox="0 0 100 100" fill="none" xmlns="http://www.w3.org/2000/svg">
<g clip-path="url(#clip0_211_13)">
<path d="M0 80.5558C0 85.1565 3.73264 88.8891 8.33333 88.8891H91.6667C96.2674 88.8891 100 85.1565 100 80.5558V50.0002H0V80.5558ZM33.3333 68.7502C33.3333 67.6044 34.2708 66.6669 35.4167 66.6669H59.0278C60.1736 66.6669 61.1111 67.6044 61.1111 68.7502V75.6947C61.1111 76.8405 60.1736 77.778 59.0278 77.778H35.4167C34.2708 77.778 33.3333 76.8405 33.3333 75.6947V68.7502ZM11.1111 68.7502C11.1111 67.6044 12.0486 66.6669 13.1944 66.6669H25.6944C26.8403 66.6669 27.7778 67.6044 27.7778 68.7502V75.6947C27.7778 76.8405 26.8403 77.778 25.6944 77.778H13.1944C12.0486 77.778 11.1111 76.8405 11.1111 75.6947V68.7502ZM100 19.4447V27.778H0V19.4447C0 14.844 3.73264 11.1113 8.33333 11.1113H91.6667C96.2674 11.1113 100 14.844 100 19.4447Z" fill="#F05454"/>
</g>
<defs>
<clipPath id="clip0_211_13">
<rect width="100" height="100" fill="white"/>
</clipPath>
</defs>
</svg>
